<?xml version="1.0" standalone="no"?>
<!DOCTYPE svg PUBLIC "-//W3C//DTD SVG 20010904//EN"
 "http://www.w3.org/TR/2001/REC-SVG-20010904/DTD/svg10.dtd">
<svg version="1.0" xmlns="http://www.w3.org/2000/svg"
 width="700.000000pt" height="700.000000pt" viewBox="0 0 700.000000 700.000000"
 preserveAspectRatio="xMidYMid meet">
<metadata>
Created by potrace 1.11, written by Peter Selinger 2001-2013
</metadata>
<g transform="translate(0.000000,700.000000) scale(0.100000,-0.100000)"
fill="#000000" stroke="none">
<path d="M1790 3676 c0 -1576 -3 -2285 -10 -2288 -6 -2 74 -88 177 -191 122
-123 189 -183 191 -173 3 14 175 16 1763 16 l1759 0 0 2310 0 2311 -97 -3 -98
-3 -3 -2207 -2 -2208 -1668 0 -1668 0 -49 50 -49 50 1664 2 1665 3 3 2308 2
2307 -1790 0 -1790 0 0 -2284z m2070 1054 l0 -280 285 0 285 0 0 -210 0 -210
-285 0 -285 0 -2 -722 -3 -723 -207 -3 -208 -2 0 725 0 725 -285 0 -285 0 0
210 0 210 285 0 285 0 0 280 0 280 210 0 210 0 0 -280z"/>
</g>
</svg>
