<?xml version="1.0" standalone="no"?>
<!DOCTYPE svg PUBLIC "-//W3C//DTD SVG 20010904//EN"
 "http://www.w3.org/TR/2001/REC-SVG-20010904/DTD/svg10.dtd">
<svg version="1.0" xmlns="http://www.w3.org/2000/svg"
 width="564.000000pt" height="564.000000pt" viewBox="0 0 564.000000 564.000000"
 preserveAspectRatio="xMidYMid meet">
<metadata>
Created by potrace 1.11, written by Peter Selinger 2001-2013
</metadata>
<g transform="translate(0.000000,564.000000) scale(0.100000,-0.100000)"
fill="#000000" stroke="none">
<path d="M1217 4803 c-2 -5 -3 -867 -2 -1918 0 -1523 -2 -1911 -12 -1915 -8
-3 51 -69 145 -162 190 -191 174 -176 170 -158 -3 13 168 15 1479 18 l1481 2
0 1940 0 1940 -84 0 c-80 0 -84 -1 -84 -22 -1 -13 -1 -848 -1 -1855 l0 -1833
-1403 0 -1402 0 -44 45 -44 45 1402 0 1402 0 0 1940 0 1940 -1499 0 c-825 0
-1502 -3 -1504 -7z m1735 -1030 l3 -238 238 0 237 0 1 -117 c0 -65 1 -134 1
-153 0 -19 -1 -45 -1 -58 l-1 -23 -227 1 c-126 1 -234 -1 -240 -3 -10 -3 -13
-134 -13 -608 l0 -604 -175 0 -175 0 0 604 c0 567 -1 604 -17 608 -10 2 -118
3 -241 3 l-222 -1 2 176 3 175 235 0 235 0 3 238 2 237 175 0 175 0 2 -237z"/>
</g>
</svg>
